<?xml version="1.0" encoding="utf-8"?>
<!-- Generator: Adobe Illustrator 19.0.0, SVG Export Plug-In . SVG Version: 6.00 Build 0)  -->
<svg version="1.1" xmlns="http://www.w3.org/2000/svg" xmlns:xlink="http://www.w3.org/1999/xlink" x="0px" y="0px"
	 viewBox="0 0 750 500" style="enable-background:new 0 0 750 500;" xml:space="preserve">
<style type="text/css">
	.st0{fill:#EBF0FF;}
	.st1{fill:#36E7F7;}
	.st2{fill:#88F7FF;}
	.st3{fill:#0B246E;}
	.st4{fill:#D7ECFA;}
	.st5{fill:#EEF8FC;}
	.st6{enable-background:new    ;}
	.st7{fill:#FFFFFF;}
	.st8{fill:#EBEBEB;}
	.st9{fill:#544438;}
	.st10{fill:#4661AD;}
	.st11{fill:#425CA3;}
	.st12{fill:none;stroke:#0B246E;stroke-width:0.75;stroke-miterlimit:10;}
	.st13{fill:#FF8B91;}
	.st14{fill:none;stroke:#FFFFFF;stroke-width:4;stroke-linecap:round;stroke-miterlimit:10;}
</style>
<g id="Background">
</g>
<g id="Objects">
	<path class="st0" d="M419.4,500H3.2c-9.3-44.5,10.5-91.3,59.4-125.6c82.1-57.5,215.3-57.5,297.4,0
		C408.9,408.7,428.7,455.5,419.4,500z"/>
	<g>
		<polygon class="st0" points="338.9,269.4 227.1,205 227.1,201.2 338.9,265.6 		"/>
		<polygon class="st0" points="219.3,253.1 107.5,188.7 107.5,184.9 219.3,249.3 		"/>
		<polygon class="st0" points="377.9,211 258.2,142 258.2,138.2 377.9,207.2 		"/>
		<polygon class="st0" points="300.8,174.5 258.2,149.9 258.2,146.1 300.8,170.7 		"/>
		<polygon class="st0" points="200.9,181.7 158.3,157.1 158.3,153.3 200.9,177.9 		"/>
		<polygon class="st0" points="135.3,179.3 100.8,159.4 100.8,155.6 135.3,175.5 		"/>
		<polygon class="st0" points="317.2,233.5 177.5,152.8 177.5,149 317.2,229.7 		"/>
	</g>
	<g>
		<g>
			<path class="st1" d="M251.8,341.7l4.1,82.7c0,0.6,0.4,1.2,0.9,1.6l0,0c1.3,0.8,3-0.1,3-1.6l0.7-82.1c0-1-0.7-1.8-1.7-2l-4.8-0.6
				C252.8,339.5,251.8,340.5,251.8,341.7z"/>
			<path class="st2" d="M259.8,340.3l-1.8,85c0,1.7,3.7,1.3,5,0.3l0.3-0.2c0.5-0.4,0.8-0.9,0.9-1.6l4.2-82.3c0.1-1-0.6-1.9-1.6-2.1
				l-4.5-1.1C261.1,337.9,259.8,338.9,259.8,340.3z"/>
		</g>
		<g>
			<polygon class="st3" points="302.3,318 305.4,319.1 305.4,322.8 302.3,322.8 			"/>
			<path class="st3" d="M214.3,364l-135-78.3l77.9-41.2c5.3-2.8,11.7-2.7,16.8,0.3L303.6,320c2.4,1.4,2.3,4.8-0.1,6.1l-72.4,38.3
				C225.9,367.2,219.5,367,214.3,364z"/>
			<path class="st2" d="M214.3,360l-135-78.3l77.9-41.2c5.3-2.8,11.7-2.7,16.8,0.3l129.5,75.2c2.4,1.4,2.3,4.8-0.1,6.1l-72.4,38.3
				C225.9,363.1,219.5,363,214.3,360z"/>
		</g>
	</g>
	<g>
		<polygon class="st4" points="221.9,308.3 221.9,310.1 198.8,323.5 198.8,321.8 		"/>
		<polygon class="st4" points="198.8,321.8 198.8,323.5 147.6,294 147.6,292.2 		"/>
		<polygon class="st5" points="221.9,308.3 198.8,321.8 147.6,292.2 170.7,278.8 		"/>
		<g>
			<g class="st6">
				<g>
					<polygon class="st4" points="173.8,282.2 173.8,283.2 170.6,285 170.6,284 					"/>
				</g>
				<g>
					<polygon class="st4" points="170.6,284 170.6,285 167.5,283.2 167.5,282.2 					"/>
				</g>
				<g>
					<polygon class="st7" points="173.8,282.2 170.6,284 167.5,282.2 170.7,280.3 					"/>
				</g>
			</g>
			<g class="st6">
				<g>
					<polygon class="st4" points="177.9,284.5 177.9,285.5 174.7,287.4 174.7,286.4 					"/>
				</g>
				<g>
					<polygon class="st4" points="174.7,286.4 174.7,287.4 171.5,285.6 171.5,284.5 					"/>
				</g>
				<g>
					<polygon class="st7" points="177.9,284.5 174.7,286.4 171.5,284.5 174.7,282.7 					"/>
				</g>
			</g>
			<g class="st6">
				<g>
					<polygon class="st4" points="181.9,286.8 181.9,287.9 178.7,289.7 178.7,288.7 					"/>
				</g>
				<g>
					<polygon class="st4" points="178.7,288.7 178.7,289.7 175.6,287.9 175.6,286.9 					"/>
				</g>
				<g>
					<polygon class="st7" points="181.9,286.8 178.7,288.7 175.6,286.9 178.8,285 					"/>
				</g>
			</g>
			<g class="st6">
				<g>
					<polygon class="st4" points="186,289.2 186,290.2 182.8,292 182.8,291 					"/>
				</g>
				<g>
					<polygon class="st4" points="182.8,291 182.8,292 179.6,290.2 179.6,289.2 					"/>
				</g>
				<g>
					<polygon class="st7" points="186,289.2 182.8,291 179.6,289.2 182.8,287.3 					"/>
				</g>
			</g>
			<g class="st6">
				<g>
					<polygon class="st4" points="190,291.5 190,292.5 186.8,294.4 186.8,293.4 					"/>
				</g>
				<g>
					<polygon class="st4" points="186.8,293.4 186.8,294.4 183.7,292.6 183.7,291.5 					"/>
				</g>
				<g>
					<polygon class="st7" points="190,291.5 186.8,293.4 183.7,291.5 186.9,289.7 					"/>
				</g>
			</g>
			<g class="st6">
				<g>
					<polygon class="st4" points="194.1,293.8 194.1,294.9 190.9,296.7 190.9,295.7 					"/>
				</g>
				<g>
					<polygon class="st4" points="190.9,295.7 190.9,296.7 187.7,294.9 187.7,293.9 					"/>
				</g>
				<g>
					<polygon class="st7" points="194.1,293.8 190.9,295.7 187.7,293.9 190.9,292 					"/>
				</g>
			</g>
			<g class="st6">
				<g>
					<polygon class="st4" points="198.1,296.2 198.1,297.2 194.9,299.1 194.9,298 					"/>
				</g>
				<g>
					<polygon class="st4" points="194.9,298 194.9,299.1 191.8,297.2 191.8,296.2 					"/>
				</g>
				<g>
					<polygon class="st7" points="198.1,296.2 194.9,298 191.8,296.2 195,294.4 					"/>
				</g>
			</g>
			<g class="st6">
				<g>
					<polygon class="st4" points="202.2,298.5 202.2,299.5 199,301.4 199,300.4 					"/>
				</g>
				<g>
					<polygon class="st4" points="199,300.4 199,301.4 195.8,299.6 195.8,298.5 					"/>
				</g>
				<g>
					<polygon class="st7" points="202.2,298.5 199,300.4 195.8,298.5 199,296.7 					"/>
				</g>
			</g>
			<g class="st6">
				<g>
					<polygon class="st4" points="206.2,300.8 206.2,301.9 203,303.7 203,302.7 					"/>
				</g>
				<g>
					<polygon class="st4" points="203,302.7 203,303.7 199.8,301.9 199.8,300.9 					"/>
				</g>
				<g>
					<polygon class="st7" points="206.2,300.8 203,302.7 199.8,300.9 203,299 					"/>
				</g>
			</g>
			<g class="st6">
				<g>
					<polygon class="st4" points="210.2,303.2 210.2,304.2 207,306.1 207,305 					"/>
				</g>
				<g>
					<polygon class="st4" points="207,305 207,306.1 203.9,304.2 203.9,303.2 					"/>
				</g>
				<g>
					<polygon class="st7" points="210.2,303.2 207,305 203.9,303.2 207.1,301.4 					"/>
				</g>
			</g>
			<g class="st6">
				<g>
					<polygon class="st4" points="218.3,307.9 218.3,308.9 215.1,310.7 215.1,309.7 					"/>
				</g>
				<g>
					<polygon class="st4" points="215.1,309.7 215.1,310.7 207.9,306.6 207.9,305.5 					"/>
				</g>
				<g>
					<polygon class="st7" points="218.3,307.9 215.1,309.7 207.9,305.5 211.1,303.7 					"/>
				</g>
			</g>
			<g class="st6">
				<g>
					<polygon class="st4" points="173.8,286.9 173.8,287.9 170.6,289.7 170.6,288.7 					"/>
				</g>
				<g>
					<polygon class="st4" points="170.6,288.7 170.6,289.7 163.4,285.6 163.4,284.6 					"/>
				</g>
				<g>
					<polygon class="st7" points="173.8,286.9 170.6,288.7 163.4,284.6 166.6,282.7 					"/>
				</g>
			</g>
			<g class="st6">
				<g>
					<polygon class="st4" points="177.9,289.2 177.9,290.2 174.7,292.1 174.7,291.1 					"/>
				</g>
				<g>
					<polygon class="st4" points="174.7,291.1 174.7,292.1 171.5,290.3 171.5,289.2 					"/>
				</g>
				<g>
					<polygon class="st7" points="177.9,289.2 174.7,291.1 171.5,289.2 174.7,287.4 					"/>
				</g>
			</g>
			<g class="st6">
				<g>
					<polygon class="st4" points="181.9,291.5 181.9,292.6 178.7,294.4 178.7,293.4 					"/>
				</g>
				<g>
					<polygon class="st4" points="178.7,293.4 178.7,294.4 175.5,292.6 175.5,291.6 					"/>
				</g>
				<g>
					<polygon class="st7" points="181.9,291.5 178.7,293.4 175.5,291.6 178.7,289.7 					"/>
				</g>
			</g>
			<g class="st6">
				<g>
					<polygon class="st4" points="186,293.9 185.9,294.9 182.7,296.8 182.8,295.7 					"/>
				</g>
				<g>
					<polygon class="st4" points="182.8,295.7 182.7,296.8 179.6,294.9 179.6,293.9 					"/>
				</g>
				<g>
					<polygon class="st7" points="186,293.9 182.8,295.7 179.6,293.9 182.8,292.1 					"/>
				</g>
			</g>
			<g class="st6">
				<g>
					<polygon class="st4" points="190,296.2 190,297.2 186.8,299.1 186.8,298.1 					"/>
				</g>
				<g>
					<polygon class="st4" points="186.8,298.1 186.8,299.1 183.6,297.3 183.6,296.2 					"/>
				</g>
				<g>
					<polygon class="st7" points="190,296.2 186.8,298.1 183.6,296.2 186.8,294.4 					"/>
				</g>
			</g>
			<g class="st6">
				<g>
					<polygon class="st4" points="194,298.5 194,299.6 190.8,301.4 190.8,300.4 					"/>
				</g>
				<g>
					<polygon class="st4" points="190.8,300.4 190.8,301.4 187.7,299.6 187.7,298.6 					"/>
				</g>
				<g>
					<polygon class="st7" points="194,298.5 190.8,300.4 187.7,298.6 190.9,296.7 					"/>
				</g>
			</g>
			<g class="st6">
				<g>
					<polygon class="st4" points="198.1,300.9 198.1,301.9 194.9,303.8 194.9,302.7 					"/>
				</g>
				<g>
					<polygon class="st4" points="194.9,302.7 194.9,303.8 191.7,301.9 191.7,300.9 					"/>
				</g>
				<g>
					<polygon class="st7" points="198.1,300.9 194.9,302.7 191.7,300.9 194.9,299.1 					"/>
				</g>
			</g>
			<g class="st6">
				<g>
					<polygon class="st4" points="202.1,303.2 202.1,304.2 198.9,306.1 198.9,305.1 					"/>
				</g>
				<g>
					<polygon class="st4" points="198.9,305.1 198.9,306.1 195.8,304.3 195.8,303.3 					"/>
				</g>
				<g>
					<polygon class="st7" points="202.1,303.2 198.9,305.1 195.8,303.3 199,301.4 					"/>
				</g>
			</g>
			<g class="st6">
				<g>
					<polygon class="st4" points="206.2,305.5 206.2,306.6 203,308.4 203,307.4 					"/>
				</g>
				<g>
					<polygon class="st4" points="203,307.4 203,308.4 199.8,306.6 199.8,305.6 					"/>
				</g>
				<g>
					<polygon class="st7" points="206.2,305.5 203,307.4 199.8,305.6 203,303.7 					"/>
				</g>
			</g>
			<g class="st6">
				<g>
					<polygon class="st4" points="210.2,307.9 210.2,308.9 207,310.8 207,309.7 					"/>
				</g>
				<g>
					<polygon class="st4" points="207,309.7 207,310.8 203.9,308.9 203.9,307.9 					"/>
				</g>
				<g>
					<polygon class="st7" points="210.2,307.9 207,309.7 203.9,307.9 207.1,306.1 					"/>
				</g>
			</g>
			<g class="st6">
				<g>
					<polygon class="st4" points="214.3,310.2 214.3,311.2 211.1,313.1 211.1,312.1 					"/>
				</g>
				<g>
					<polygon class="st4" points="211.1,312.1 211.1,313.1 207.9,311.3 207.9,310.3 					"/>
				</g>
				<g>
					<polygon class="st7" points="214.3,310.2 211.1,312.1 207.9,310.3 211.1,308.4 					"/>
				</g>
			</g>
			<g class="st6">
				<g>
					<polygon class="st4" points="169.7,289.2 169.7,290.3 166.5,292.1 166.5,291.1 					"/>
				</g>
				<g>
					<polygon class="st4" points="166.5,291.1 166.5,292.1 159.3,288 159.3,286.9 					"/>
				</g>
				<g>
					<polygon class="st7" points="169.7,289.2 166.5,291.1 159.3,286.9 162.5,285.1 					"/>
				</g>
			</g>
			<g class="st6">
				<g>
					<polygon class="st4" points="173.8,291.6 173.8,292.6 170.6,294.5 170.6,293.4 					"/>
				</g>
				<g>
					<polygon class="st4" points="170.6,293.4 170.6,294.5 167.4,292.6 167.4,291.6 					"/>
				</g>
				<g>
					<polygon class="st7" points="173.8,291.6 170.6,293.4 167.4,291.6 170.6,289.8 					"/>
				</g>
			</g>
			<g class="st6">
				<g>
					<polygon class="st4" points="177.8,293.9 177.8,294.9 174.6,296.8 174.6,295.8 					"/>
				</g>
				<g>
					<polygon class="st4" points="174.6,295.8 174.6,296.8 171.5,295 171.5,293.9 					"/>
				</g>
				<g>
					<polygon class="st7" points="177.8,293.9 174.6,295.8 171.5,293.9 174.7,292.1 					"/>
				</g>
			</g>
			<g class="st6">
				<g>
					<polygon class="st4" points="181.9,296.2 181.9,297.3 178.7,299.1 178.7,298.1 					"/>
				</g>
				<g>
					<polygon class="st4" points="178.7,298.1 178.7,299.1 175.5,297.3 175.5,296.3 					"/>
				</g>
				<g>
					<polygon class="st7" points="181.9,296.2 178.7,298.1 175.5,296.3 178.7,294.4 					"/>
				</g>
			</g>
			<g class="st6">
				<g>
					<polygon class="st4" points="185.9,298.6 185.9,299.6 182.7,301.5 182.7,300.4 					"/>
				</g>
				<g>
					<polygon class="st4" points="182.7,300.4 182.7,301.5 179.6,299.6 179.6,298.6 					"/>
				</g>
				<g>
					<polygon class="st7" points="185.9,298.6 182.7,300.4 179.6,298.6 182.8,296.8 					"/>
				</g>
			</g>
			<g class="st6">
				<g>
					<polygon class="st4" points="190,300.9 190,301.9 186.8,303.8 186.8,302.8 					"/>
				</g>
				<g>
					<polygon class="st4" points="186.8,302.8 186.8,303.8 183.6,302 183.6,301 					"/>
				</g>
				<g>
					<polygon class="st7" points="190,300.9 186.8,302.8 183.6,301 186.8,299.1 					"/>
				</g>
			</g>
			<g class="st6">
				<g>
					<polygon class="st4" points="194,303.3 194,304.3 190.8,306.1 190.8,305.1 					"/>
				</g>
				<g>
					<polygon class="st4" points="190.8,305.1 190.8,306.1 187.6,304.3 187.6,303.3 					"/>
				</g>
				<g>
					<polygon class="st7" points="194,303.3 190.8,305.1 187.6,303.3 190.8,301.4 					"/>
				</g>
			</g>
			<g class="st6">
				<g>
					<polygon class="st4" points="198,305.6 198,306.6 194.8,308.5 194.8,307.4 					"/>
				</g>
				<g>
					<polygon class="st4" points="194.8,307.4 194.8,308.5 191.7,306.6 191.7,305.6 					"/>
				</g>
				<g>
					<polygon class="st7" points="198,305.6 194.8,307.4 191.7,305.6 194.9,303.8 					"/>
				</g>
			</g>
			<g class="st6">
				<g>
					<polygon class="st4" points="202.1,307.9 202.1,308.9 198.9,310.8 198.9,309.8 					"/>
				</g>
				<g>
					<polygon class="st4" points="198.9,309.8 198.9,310.8 195.7,309 195.7,308 					"/>
				</g>
				<g>
					<polygon class="st7" points="202.1,307.9 198.9,309.8 195.7,308 198.9,306.1 					"/>
				</g>
			</g>
			<g class="st6">
				<g>
					<polygon class="st4" points="210.2,312.6 210.2,313.6 207,315.5 207,314.5 					"/>
				</g>
				<g>
					<polygon class="st4" points="207,314.5 207,315.5 199.8,311.3 199.8,310.3 					"/>
				</g>
				<g>
					<polygon class="st7" points="210.2,312.6 207,314.5 199.8,310.3 203,308.4 					"/>
				</g>
			</g>
			<g class="st6">
				<g>
					<polygon class="st4" points="169.7,294 169.7,295 166.5,296.8 166.5,295.8 					"/>
				</g>
				<g>
					<polygon class="st4" points="166.5,295.8 166.5,296.8 155.2,290.3 155.2,289.3 					"/>
				</g>
				<g>
					<polygon class="st7" points="169.7,294 166.5,295.8 155.2,289.3 158.4,287.5 					"/>
				</g>
			</g>
			<g class="st6">
				<g>
					<polygon class="st4" points="173.7,296.3 173.7,297.3 170.5,299.2 170.5,298.1 					"/>
				</g>
				<g>
					<polygon class="st4" points="170.5,298.1 170.5,299.2 167.4,297.3 167.4,296.3 					"/>
				</g>
				<g>
					<polygon class="st7" points="173.7,296.3 170.5,298.1 167.4,296.3 170.6,294.5 					"/>
				</g>
			</g>
			<g class="st6">
				<g>
					<polygon class="st4" points="177.8,298.6 177.8,299.6 174.6,301.5 174.6,300.5 					"/>
				</g>
				<g>
					<polygon class="st4" points="174.6,300.5 174.6,301.5 171.4,299.7 171.4,298.7 					"/>
				</g>
				<g>
					<polygon class="st7" points="177.8,298.6 174.6,300.5 171.4,298.7 174.6,296.8 					"/>
				</g>
			</g>
			<g class="st6">
				<g>
					<polygon class="st4" points="181.8,301 181.8,302 178.6,303.8 178.6,302.8 					"/>
				</g>
				<g>
					<polygon class="st4" points="178.6,302.8 178.6,303.8 175.5,302 175.5,301 					"/>
				</g>
				<g>
					<polygon class="st7" points="181.8,301 178.6,302.8 175.5,301 178.7,299.1 					"/>
				</g>
			</g>
			<g class="st6">
				<g>
					<polygon class="st4" points="185.9,303.3 185.9,304.3 182.7,306.2 182.7,305.1 					"/>
				</g>
				<g>
					<polygon class="st4" points="182.7,305.1 182.7,306.2 179.5,304.3 179.5,303.3 					"/>
				</g>
				<g>
					<polygon class="st7" points="185.9,303.3 182.7,305.1 179.5,303.3 182.7,301.5 					"/>
				</g>
			</g>
			<g class="st6">
				<g>
					<polygon class="st4" points="189.9,305.6 189.9,306.6 186.7,308.5 186.7,307.5 					"/>
				</g>
				<g>
					<polygon class="st4" points="186.7,307.5 186.7,308.5 183.6,306.7 183.6,305.7 					"/>
				</g>
				<g>
					<polygon class="st7" points="189.9,305.6 186.7,307.5 183.6,305.7 186.8,303.8 					"/>
				</g>
			</g>
			<g class="st6">
				<g>
					<polygon class="st4" points="194,308 194,309 190.8,310.8 190.8,309.8 					"/>
				</g>
				<g>
					<polygon class="st4" points="190.8,309.8 190.8,310.8 187.6,309 187.6,308 					"/>
				</g>
				<g>
					<polygon class="st7" points="194,308 190.8,309.8 187.6,308 190.8,306.1 					"/>
				</g>
			</g>
			<g class="st6">
				<g>
					<polygon class="st4" points="198,310.3 198,311.3 194.8,313.2 194.8,312.2 					"/>
				</g>
				<g>
					<polygon class="st4" points="194.8,312.2 194.8,313.2 191.6,311.3 191.6,310.3 					"/>
				</g>
				<g>
					<polygon class="st7" points="198,310.3 194.8,312.2 191.6,310.3 194.8,308.5 					"/>
				</g>
			</g>
			<g class="st6">
				<g>
					<polygon class="st4" points="206.1,315 206.1,316 202.9,317.8 202.9,316.8 					"/>
				</g>
				<g>
					<polygon class="st4" points="202.9,316.8 202.9,317.8 195.7,313.7 195.7,312.7 					"/>
				</g>
				<g>
					<polygon class="st7" points="206.1,315 202.9,316.8 195.7,312.7 198.9,310.8 					"/>
				</g>
			</g>
			<g class="st6">
				<g>
					<polygon class="st4" points="157.5,291.6 157.5,292.7 154.3,294.5 154.3,293.5 					"/>
				</g>
				<g>
					<polygon class="st4" points="154.3,293.5 154.3,294.5 151.2,292.7 151.2,291.7 					"/>
				</g>
				<g>
					<polygon class="st7" points="157.5,291.6 154.3,293.5 151.2,291.7 154.4,289.8 					"/>
				</g>
			</g>
			<g class="st6">
				<g>
					<polygon class="st4" points="161.6,294 161.6,295 158.4,296.9 158.4,295.8 					"/>
				</g>
				<g>
					<polygon class="st4" points="158.4,295.8 158.4,296.9 155.2,295 155.2,294 					"/>
				</g>
				<g>
					<polygon class="st7" points="161.6,294 158.4,295.8 155.2,294 158.4,292.2 					"/>
				</g>
			</g>
			<g class="st6">
				<g>
					<polygon class="st4" points="165.6,296.3 165.6,297.3 162.4,299.2 162.4,298.2 					"/>
				</g>
				<g>
					<polygon class="st4" points="162.4,298.2 162.4,299.2 159.3,297.4 159.3,296.4 					"/>
				</g>
				<g>
					<polygon class="st7" points="165.6,296.3 162.4,298.2 159.3,296.4 162.5,294.5 					"/>
				</g>
			</g>
			<g class="st6">
				<g>
					<polygon class="st4" points="185.8,308 185.8,309 182.6,310.9 182.6,309.9 					"/>
				</g>
				<g>
					<polygon class="st4" points="182.6,309.9 182.6,310.9 163.3,299.7 163.3,298.7 					"/>
				</g>
				<g>
					<polygon class="st7" points="185.8,308 182.6,309.9 163.3,298.7 166.5,296.8 					"/>
				</g>
			</g>
			<g class="st6">
				<g>
					<polygon class="st4" points="189.9,310.3 189.9,311.3 186.7,313.2 186.7,312.2 					"/>
				</g>
				<g>
					<polygon class="st4" points="186.7,312.2 186.7,313.2 183.5,311.4 183.5,310.4 					"/>
				</g>
				<g>
					<polygon class="st7" points="189.9,310.3 186.7,312.2 183.5,310.4 186.7,308.5 					"/>
				</g>
			</g>
			<g class="st6">
				<g>
					<polygon class="st4" points="193.9,312.7 193.9,313.7 190.7,315.5 190.7,314.5 					"/>
				</g>
				<g>
					<polygon class="st4" points="190.7,314.5 190.7,315.5 187.6,313.7 187.6,312.7 					"/>
				</g>
				<g>
					<polygon class="st7" points="193.9,312.7 190.7,314.5 187.6,312.7 190.8,310.8 					"/>
				</g>
			</g>
			<g class="st6">
				<g>
					<polygon class="st4" points="202,317.3 202,318.4 198.8,320.2 198.8,319.2 					"/>
				</g>
				<g>
					<polygon class="st4" points="198.8,319.2 198.8,320.2 191.6,316.1 191.6,315 					"/>
				</g>
				<g>
					<polygon class="st7" points="202,317.3 198.8,319.2 191.6,315 194.8,313.2 					"/>
				</g>
			</g>
		</g>
	</g>
	<g>
		<path class="st1" d="M241.2,335.8c-4.3,2.5-11.2,2.5-15.4,0c-4.3-2.5-4.3-6.5,0-8.9c4.3-2.5,11.2-2.5,15.4,0
			C245.5,329.3,245.5,333.3,241.2,335.8z"/>
		<rect x="222.6" y="313.1" class="st1" width="21.8" height="18.3"/>
		<path class="st7" d="M241.2,317.5c-4.3,2.5-11.2,2.5-15.4,0c-4.3-2.5-4.3-6.5,0-8.9s11.2-2.5,15.4,0
			C245.5,311.1,245.5,315.1,241.2,317.5z"/>
		<path class="st8" d="M241.8,314.4c-0.4,0.6-1.1,1.1-2,1.6c-3.4,1.7-8.9,1.7-12.3,0c-0.9-0.5-1.6-1-2-1.6c-1.1-1.6-0.5-3.4,2-4.7
			c3.4-1.7,8.9-1.7,12.3,0C242.3,311,242.9,312.9,241.8,314.4z"/>
		<path class="st9" d="M241.8,314.4c-0.4,0.6-1.1,1.1-2,1.6c-3.4,1.7-8.9,1.7-12.3,0c-0.9-0.5-1.6-1-2-1.6c0.4-0.6,1.1-1.1,2-1.6
			c3.4-1.7,8.9-1.7,12.3,0C240.7,313.3,241.4,313.8,241.8,314.4z"/>
	</g>
	<g>
		<polygon class="st7" points="152,280.7 125.4,265.3 163,243.6 189.7,259 		"/>
		<polygon class="st10" points="152.5,275.5 128.5,261.6 162.5,242 186.6,255.9 		"/>
	</g>
	<g>
		<polygon class="st7" points="206.5,229.1 206.5,233.1 215.9,238.4 215.9,233.7 		"/>
		<g>
			<path class="st3" d="M208.8,297.4l-17.4-10c-1.1-0.6-1.1-2.3,0-2.9l19.8-11.4l22.3,12.9l-19.9,11.5
				C212.1,298.3,210.3,298.3,208.8,297.4z"/>
			<g>
				<path class="st3" d="M180.5,194.8l-2.5,1.7l2.5,62.9l80.6,49.3l2.3-1.5c0.4-0.2,0.6-0.6,0.6-1.1v-62.4c0-0.7-0.4-1.4-1-1.7
					l-81.7-47.2C181,194.6,180.8,194.6,180.5,194.8z"/>
				<g>
					<path class="st1" d="M260.1,243.5c0.8,0.4,1.2,1.3,1.2,2.1V308c0,0.6-0.6,0.9-1.1,0.6l-80.5-46.5c-1.2-0.7-1.9-2-1.9-3.4v-61.9
						c0-0.4,0.4-0.6,0.8-0.4"/>
					<polygon class="st7" points="177.8,249.1 177.8,199.1 261.2,247.3 261.3,297.4 					"/>
					<polygon class="st1" points="191.8,215 186.8,212.1 186.8,210.9 191.8,213.8 					"/>
					<polygon class="st2" points="235.2,240 195,216.8 195,215.6 235.2,238.8 					"/>
					<polygon class="st2" points="252,249.7 238.7,242 238.7,240.8 252,248.5 					"/>
					<polygon class="st1" points="191.8,219 186.8,216.2 186.8,214.9 191.8,217.8 					"/>
					<polygon class="st2" points="235.2,244.1 195,220.9 195,219.6 235.2,242.8 					"/>
					<polygon class="st2" points="252,253.8 238.7,246.1 238.7,244.8 252,252.5 					"/>
					<polygon class="st1" points="191.8,223.1 186.8,220.2 186.8,219 191.8,221.8 					"/>
					<polygon class="st2" points="227,243.4 195,224.9 195,223.7 227,242.1 					"/>
					<polygon class="st2" points="252,257.8 230.3,245.3 230.3,244 252,256.6 					"/>
					<polygon class="st1" points="191.8,227.1 186.8,224.2 186.8,223 191.8,225.9 					"/>
					<polygon class="st2" points="241,255.5 195,228.9 195,227.7 241,254.3 					"/>
					<polygon class="st2" points="252,261.9 238.7,254.2 238.7,252.9 252,260.6 					"/>
					<polygon class="st1" points="191.8,231.1 186.8,228.3 186.8,227 191.8,229.9 					"/>
					<polygon class="st2" points="235.2,256.2 195,233 195,231.8 235.2,254.9 					"/>
					<polygon class="st2" points="252,265.9 238.7,258.2 238.7,257 252,264.7 					"/>
					<polygon class="st1" points="191.8,235.2 186.8,232.3 186.8,231.1 191.8,234 					"/>
					<polygon class="st2" points="223.6,253.5 195,237 195,235.8 223.6,252.3 					"/>
					<polygon class="st2" points="252,269.9 249.7,268.6 249.7,267.4 252,268.7 					"/>
					<polygon class="st2" points="246.4,266.7 238.7,262.2 238.7,261 246.4,265.5 					"/>
					<polygon class="st1" points="191.8,239.2 186.8,236.4 186.8,235.1 191.8,238 					"/>
					<polygon class="st2" points="229,260.7 195,241.1 195,239.8 229,259.5 					"/>
					<polygon class="st2" points="252,274 232.3,262.6 232.3,261.4 252,272.7 					"/>
					<polygon class="st1" points="191.8,243.3 186.8,240.4 186.8,239.2 191.8,242 					"/>
					<polygon class="st2" points="214.2,256.2 195,245.1 195,243.9 214.2,255 					"/>
					<polygon class="st2" points="252,278 218,258.4 218,257.1 252,276.8 					"/>
					<polygon class="st1" points="191.8,247.3 186.8,244.4 186.8,243.2 191.8,246.1 					"/>
					<polygon class="st2" points="235.2,272.3 195,249.2 195,247.9 235.2,271.1 					"/>
					<polygon class="st2" points="252,282.1 238.7,274.4 238.7,273.1 252,280.8 					"/>
				</g>
			</g>
		</g>
	</g>
	<g>
		<polygon class="st2" points="288.7,229.6 224.8,193.2 224.8,161.6 288.7,198 		"/>
		<g>
			<path class="st3" d="M241.8,179.3V195l-2-1.2v-7.1l-7.1-4.1v7.1l-2-1.2v-15.7l2,1.2v7l7.1,4.1v-7L241.8,179.3z"/>
			<path class="st3" d="M254.5,188.6l-4.3-2.5v13.8l-2-1.2v-13.8l-4.4-2.5v-2l10.7,6.2V188.6z"/>
			<path class="st3" d="M270.8,196v15.7l-1.8-1v-11.2c0-0.2,0-0.3,0-0.5c0-0.2,0-0.4,0-0.6l-4.5,7c-0.2,0.3-0.4,0.3-0.7,0.1
				l-0.3-0.2c-0.3-0.2-0.6-0.5-0.7-1l-4.6-12.3c0,0.4,0.1,0.8,0.1,1.2v11.2l-1.8-1v-15.7l1.5,0.9c0.2,0.1,0.3,0.2,0.4,0.3
				c0.1,0.1,0.2,0.3,0.3,0.5l4.6,12.1c0.1,0.2,0.2,0.5,0.2,0.7c0.1,0.3,0.1,0.5,0.2,0.8c0.1-0.4,0.3-0.7,0.5-1l4.5-6.8
				c0.1-0.1,0.2-0.2,0.3-0.2c0.1,0,0.2,0.1,0.4,0.2L270.8,196z"/>
			<path class="st3" d="M282,216.3v2l-7.8-4.5V198l2,1.2v13.8L282,216.3z"/>
		</g>
	</g>
	<g>
		<polygon class="st3" points="150.3,225.4 100.8,197.8 100.8,166.2 150.3,193.8 		"/>
		<g>
			<path class="st1" d="M119.1,196.6c0.1,0.1,0.2,0.2,0.3,0.3l0.8,1.5c-0.6,0.4-1.2,0.6-2,0.6c-0.8,0-1.8-0.4-2.9-1
				c-1-0.6-1.9-1.3-2.7-2.1c-0.8-0.9-1.5-1.8-2.1-2.8c-0.6-1-1-2.1-1.3-3.3c-0.3-1.2-0.5-2.3-0.5-3.5c0-1.2,0.2-2.2,0.5-3
				c0.3-0.8,0.8-1.4,1.4-1.8c0.6-0.4,1.3-0.5,2.1-0.4c0.8,0.1,1.7,0.4,2.7,1c1,0.6,1.8,1.2,2.6,2c0.8,0.8,1.4,1.7,2,2.6l-0.7,0.7
				c0,0.1-0.1,0.1-0.2,0.1c-0.1,0-0.2,0-0.3-0.1c-0.1-0.1-0.3-0.2-0.4-0.5c-0.2-0.2-0.4-0.5-0.6-0.8c-0.3-0.3-0.6-0.7-1-1
				c-0.4-0.4-0.9-0.7-1.4-1c-0.7-0.4-1.3-0.6-1.9-0.7c-0.6-0.1-1,0.1-1.5,0.3c-0.4,0.3-0.7,0.7-0.9,1.3c-0.2,0.6-0.3,1.4-0.3,2.3
				c0,1,0.1,1.9,0.4,2.8c0.2,0.9,0.6,1.7,1,2.5c0.4,0.8,0.9,1.4,1.5,2c0.6,0.6,1.2,1.1,1.8,1.4c0.4,0.2,0.7,0.4,1.1,0.5
				c0.3,0.1,0.6,0.2,0.9,0.3c0.3,0,0.5,0,0.7,0c0.2,0,0.5-0.1,0.7-0.2c0.1,0,0.1,0,0.2,0C118.9,196.6,119,196.6,119.1,196.6z"/>
			<path class="st1" d="M129.2,192.7c-0.1,0.1-0.1,0.1-0.2,0.2c-0.1,0-0.2,0-0.3-0.1c-0.1-0.1-0.2-0.2-0.4-0.4
				c-0.1-0.2-0.3-0.4-0.5-0.7c-0.2-0.3-0.5-0.6-0.8-0.9s-0.7-0.6-1.1-0.8c-0.4-0.2-0.7-0.4-1-0.4c-0.3-0.1-0.6,0-0.8,0.1
				c-0.2,0.1-0.4,0.2-0.5,0.5c-0.1,0.2-0.2,0.5-0.2,0.8c0,0.4,0.1,0.8,0.3,1.2c0.2,0.4,0.4,0.8,0.7,1.1c0.3,0.4,0.6,0.7,1,1.1
				c0.4,0.4,0.8,0.7,1.2,1.1c0.4,0.4,0.8,0.8,1.2,1.2c0.4,0.4,0.7,0.9,1,1.4c0.3,0.5,0.5,1,0.7,1.6c0.2,0.6,0.3,1.2,0.3,1.8
				c0,0.7-0.1,1.3-0.3,1.8c-0.2,0.5-0.5,0.8-0.9,1.1c-0.4,0.2-0.9,0.3-1.4,0.2s-1.2-0.3-2-0.7c-0.4-0.3-0.9-0.5-1.3-0.9
				c-0.4-0.3-0.8-0.7-1.2-1.1c-0.4-0.4-0.7-0.8-1-1.2c-0.3-0.4-0.6-0.9-0.9-1.3l0.6-0.8c0.1-0.1,0.1-0.1,0.2-0.1
				c0.1,0,0.2,0,0.3,0.1c0.1,0.1,0.3,0.2,0.5,0.5c0.2,0.3,0.4,0.6,0.6,0.9c0.3,0.3,0.6,0.7,0.9,1.1c0.4,0.4,0.8,0.7,1.3,1
				c0.4,0.2,0.8,0.4,1.1,0.5c0.3,0.1,0.6,0,0.8-0.1c0.2-0.1,0.4-0.3,0.5-0.6c0.1-0.3,0.2-0.6,0.2-1c0-0.5-0.1-0.9-0.3-1.3
				c-0.2-0.4-0.4-0.8-0.7-1.2c-0.3-0.4-0.6-0.7-1-1.1c-0.4-0.4-0.8-0.7-1.2-1.1c-0.4-0.4-0.8-0.8-1.2-1.2c-0.4-0.4-0.7-0.9-1-1.4
				c-0.3-0.5-0.5-1-0.7-1.6c-0.2-0.6-0.3-1.2-0.3-1.9c0-0.6,0.1-1.1,0.3-1.5c0.2-0.4,0.5-0.7,0.8-0.9c0.4-0.2,0.8-0.3,1.3-0.2
				c0.5,0.1,1.1,0.3,1.8,0.7c0.8,0.4,1.5,1,2.1,1.6c0.6,0.7,1.2,1.4,1.7,2.2L129.2,192.7z"/>
			<path class="st1" d="M139.6,198.7c-0.1,0.1-0.1,0.1-0.2,0.2c-0.1,0-0.2,0-0.3-0.1c-0.1-0.1-0.2-0.2-0.4-0.4
				c-0.1-0.2-0.3-0.4-0.5-0.7c-0.2-0.3-0.5-0.6-0.8-0.9s-0.7-0.6-1.1-0.8c-0.4-0.2-0.7-0.4-1-0.4c-0.3-0.1-0.6,0-0.8,0.1
				c-0.2,0.1-0.4,0.2-0.5,0.5c-0.1,0.2-0.2,0.5-0.2,0.8c0,0.4,0.1,0.8,0.3,1.2c0.2,0.4,0.4,0.8,0.7,1.1c0.3,0.4,0.6,0.7,1,1.1
				c0.4,0.4,0.8,0.7,1.2,1.1c0.4,0.4,0.8,0.8,1.2,1.2c0.4,0.4,0.7,0.9,1,1.4c0.3,0.5,0.5,1,0.7,1.6c0.2,0.6,0.3,1.2,0.3,1.8
				c0,0.7-0.1,1.3-0.3,1.8c-0.2,0.5-0.5,0.8-0.9,1.1c-0.4,0.2-0.9,0.3-1.4,0.2c-0.6-0.1-1.2-0.3-2-0.7c-0.4-0.3-0.9-0.5-1.3-0.9
				c-0.4-0.3-0.8-0.7-1.2-1.1c-0.4-0.4-0.7-0.8-1-1.2c-0.3-0.4-0.6-0.9-0.9-1.3l0.6-0.8c0.1-0.1,0.1-0.1,0.2-0.1
				c0.1,0,0.2,0,0.3,0.1c0.1,0.1,0.3,0.2,0.5,0.5c0.2,0.3,0.4,0.6,0.6,0.9c0.3,0.3,0.6,0.7,0.9,1.1c0.4,0.4,0.8,0.7,1.3,1
				c0.4,0.2,0.8,0.4,1.1,0.5c0.3,0.1,0.6,0,0.8-0.1c0.2-0.1,0.4-0.3,0.5-0.6c0.1-0.3,0.2-0.6,0.2-1c0-0.5-0.1-0.9-0.3-1.3
				c-0.2-0.4-0.4-0.8-0.7-1.2c-0.3-0.4-0.6-0.7-1-1.1c-0.4-0.4-0.8-0.7-1.2-1.1c-0.4-0.4-0.8-0.8-1.2-1.2c-0.4-0.4-0.7-0.9-1-1.4
				c-0.3-0.5-0.5-1-0.7-1.6c-0.2-0.6-0.3-1.2-0.3-1.9c0-0.6,0.1-1.1,0.3-1.5c0.2-0.4,0.5-0.7,0.8-0.9c0.4-0.2,0.8-0.3,1.3-0.2
				c0.5,0.1,1.1,0.3,1.8,0.7c0.8,0.4,1.5,1,2.1,1.6c0.6,0.7,1.2,1.4,1.7,2.2L139.6,198.7z"/>
		</g>
	</g>
	<g>
		<polygon class="st10" points="351.8,327 302.3,299.3 302.3,267.7 351.8,295.4 		"/>
		<g>
			<path class="st2" d="M314.1,281.7c0.9,0.5,1.6,1.1,2.3,1.7c0.6,0.6,1.2,1.2,1.6,1.9c0.4,0.7,0.7,1.4,0.9,2.1
				c0.2,0.7,0.3,1.5,0.3,2.2c0,0.7-0.1,1.4-0.3,1.8c-0.2,0.5-0.5,0.8-1,1c-0.4,0.2-1,0.2-1.6,0.1c-0.6-0.1-1.4-0.4-2.2-0.9l-2.1-1.2
				v5.8l-2-1.2v-15.7L314.1,281.7z M314.1,289.8c0.5,0.3,1,0.5,1.4,0.6c0.4,0.1,0.7,0,1-0.1c0.3-0.1,0.5-0.4,0.6-0.7
				c0.1-0.3,0.2-0.7,0.2-1.2c0-1-0.3-1.9-0.8-2.7c-0.5-0.8-1.3-1.6-2.4-2.2l-2.1-1.2v6.3L314.1,289.8z"/>
			<path class="st2" d="M332.7,292.4v15.7l-2-1.2v-7.1l-7.1-4.1v7.1l-2-1.2V286l2,1.2v7l7.1,4.1v-7L332.7,292.4z"/>
			<path class="st2" d="M340.2,296.8c0.9,0.5,1.6,1.1,2.3,1.7c0.6,0.6,1.2,1.2,1.6,1.9c0.4,0.7,0.7,1.4,0.9,2.1
				c0.2,0.7,0.3,1.5,0.3,2.2c0,0.7-0.1,1.4-0.3,1.8c-0.2,0.5-0.5,0.8-1,1c-0.4,0.2-1,0.2-1.6,0.1c-0.6-0.1-1.4-0.4-2.2-0.9l-2.1-1.2
				v5.8l-2-1.2v-15.7L340.2,296.8z M340.2,304.9c0.5,0.3,1,0.5,1.4,0.6c0.4,0.1,0.7,0,1-0.1c0.3-0.1,0.5-0.4,0.6-0.7
				c0.1-0.3,0.2-0.7,0.2-1.2c0-1-0.3-1.9-0.8-2.7c-0.5-0.8-1.3-1.6-2.4-2.2l-2.1-1.2v6.3L340.2,304.9z"/>
		</g>
	</g>
	<g>
		<polygon class="st3" points="380.2,221.3 346.2,202.2 346.2,170.7 380.2,189.7 		"/>
		<g>
			<path class="st7" d="M359.9,196.4c0,0.9-0.1,1.6-0.3,2.2c-0.2,0.6-0.5,1-0.8,1.3c-0.4,0.3-0.8,0.4-1.4,0.3
				c-0.5-0.1-1.2-0.3-1.9-0.7c-0.6-0.4-1.3-0.8-2-1.4l0.1-1.3c0-0.1,0.1-0.2,0.1-0.2c0.1,0,0.2,0,0.3,0.1c0.1,0.1,0.3,0.2,0.4,0.3
				s0.4,0.3,0.7,0.5c0.4,0.2,0.8,0.4,1.1,0.4c0.3,0,0.6,0,0.8-0.2c0.2-0.2,0.4-0.5,0.5-0.9c0.1-0.4,0.2-0.9,0.2-1.6V185l2,1.2V196.4
				z"/>
			<path class="st7" d="M370.2,194.7c-0.1,0.1-0.1,0.1-0.2,0.2c-0.1,0-0.2,0-0.3-0.1c-0.1-0.1-0.2-0.2-0.4-0.4
				c-0.1-0.2-0.3-0.4-0.5-0.7c-0.2-0.3-0.5-0.6-0.8-0.9c-0.3-0.3-0.7-0.6-1.1-0.8c-0.4-0.2-0.7-0.4-1-0.4c-0.3-0.1-0.6,0-0.8,0.1
				c-0.2,0.1-0.4,0.2-0.5,0.5c-0.1,0.2-0.2,0.5-0.2,0.8c0,0.4,0.1,0.8,0.3,1.2c0.2,0.4,0.4,0.8,0.7,1.1c0.3,0.4,0.6,0.7,1,1.1
				c0.4,0.4,0.8,0.7,1.2,1.1c0.4,0.4,0.8,0.8,1.2,1.2c0.4,0.4,0.7,0.9,1,1.4c0.3,0.5,0.5,1,0.7,1.6c0.2,0.6,0.3,1.2,0.3,1.8
				c0,0.7-0.1,1.3-0.3,1.8c-0.2,0.5-0.5,0.8-0.9,1.1c-0.4,0.2-0.9,0.3-1.4,0.2c-0.6-0.1-1.2-0.3-2-0.7c-0.4-0.3-0.9-0.5-1.3-0.9
				c-0.4-0.3-0.8-0.7-1.2-1.1c-0.4-0.4-0.7-0.8-1-1.2c-0.3-0.4-0.6-0.9-0.9-1.3l0.6-0.8c0.1-0.1,0.1-0.1,0.2-0.1
				c0.1,0,0.2,0,0.3,0.1c0.1,0.1,0.3,0.2,0.5,0.5c0.2,0.3,0.4,0.6,0.6,0.9c0.3,0.3,0.6,0.7,0.9,1.1c0.4,0.4,0.8,0.7,1.3,1
				c0.4,0.2,0.8,0.4,1.1,0.5c0.3,0.1,0.6,0,0.8-0.1c0.2-0.1,0.4-0.3,0.5-0.6c0.1-0.3,0.2-0.6,0.2-1c0-0.5-0.1-0.9-0.3-1.3
				c-0.2-0.4-0.4-0.8-0.7-1.2c-0.3-0.4-0.6-0.7-1-1.1c-0.4-0.4-0.8-0.7-1.2-1.1c-0.4-0.4-0.8-0.8-1.2-1.2c-0.4-0.4-0.7-0.9-1-1.4
				c-0.3-0.5-0.5-1-0.7-1.6c-0.2-0.6-0.3-1.2-0.3-1.9c0-0.6,0.1-1.1,0.3-1.5c0.2-0.4,0.5-0.7,0.8-0.9c0.4-0.2,0.8-0.3,1.3-0.2
				c0.5,0.1,1.1,0.3,1.8,0.7c0.8,0.4,1.5,1,2.1,1.6c0.6,0.7,1.2,1.4,1.7,2.2L370.2,194.7z"/>
		</g>
	</g>
	<g>
		<path class="st3" d="M84.9,452.2c0,1.9-1.4,4.3-3,5.3s-3,0.2-3-1.8c0-1.9,1.4-4.3,3-5.3S84.9,450.2,84.9,452.2z"/>
		<path class="st3" d="M82.4,450.6c0.6,1.8,0,4.5-1.3,6c-1.3,1.4-2.8,1.1-3.4-0.7c-0.6-1.8,0-4.5,1.3-6
			C80.3,448.4,81.8,448.8,82.4,450.6z"/>
		<g>
			<path class="st3" d="M138.2,397.9c0,0,0.3,10.3,1.7,13.9c1.4,3.6,4.9,3.3,7.6,3c2.7-0.3,9.5-5.2,12.8-8.3
				c3.3-3.2,10.3-2.6,15.8-10.4c5.5-7.8,0-11.1-1.7-11.3c-1.7-0.2-10.8,7.1-18,4.3L138.2,397.9z"/>
			<path class="st11" d="M69.5,346.2c0,0,58.7-19.3,69.8-11.3c10.4,7.5,8.7,29.9,16.9,54.2c0.2,0.6,0.2,1.3-0.1,1.9
				c-1.3,2.8-5.8,10.6-18.2,8.6c0,0-6.8-17.8-11.5-36.3c0,0-45.7,29.5-56.1,21.8C60,377.4,69.5,346.2,69.5,346.2z"/>
			<polygon class="st3" points="45.6,430.1 84.2,423.3 80.7,452 84.2,452.9 91,423.3 126.9,438.1 128.9,436 94.7,419.8 120.5,408 
				117.7,406.6 89,416.4 73.9,406.6 70,407.5 83.7,418.9 46.5,427.2 			"/>
			<path class="st3" d="M50.5,426.2c0,1.9-1.4,4.3-3,5.3s-3,0.2-3-1.8c0-1.9,1.4-4.3,3-5.3S50.5,424.2,50.5,426.2z"/>
			<path class="st3" d="M51.8,426.9c0,1.9-1.4,4.3-3,5.3c-1.7,1-3,0.2-3-1.8c0-1.9,1.4-4.3,3-5.3C50.5,424.2,51.8,425,51.8,426.9z"
				/>
			<path class="st3" d="M130.2,435c0,1.9-1.4,4.3-3,5.3c-1.7,1-3,0.2-3-1.8c0-1.9,1.4-4.3,3-5.3C128.8,432.3,130.2,433,130.2,435z"
				/>
			<path class="st3" d="M128.5,433.9c0,1.9-1.4,4.3-3,5.3c-1.7,1-3,0.2-3-1.8c0-1.9,1.4-4.3,3-5.3
				C127.1,431.1,128.5,431.9,128.5,433.9z"/>
			<rect x="85" y="403.4" class="st3" width="6.9" height="16.9"/>
			<path class="st3" d="M166.7,406.6c0,0,0.3,10.3,1.7,13.9c1.4,3.6,4.9,3.3,7.6,3c2.7-0.3,9.5-5.2,12.8-8.3
				c3.3-3.2,10.3-2.6,15.8-10.4c5.5-7.8,0-11.1-1.7-11.3c-1.7-0.2-10.4,6.4-17.6,3.5L166.7,406.6z"/>
			<path class="st10" d="M98.3,353.3c0,0,58.7-19.3,69.8-11.3c10.6,7.6,8.7,30.5,17.2,55.1c0,0-3.5,12-18.5,9.6
				c0,0-6.8-17.8-11.5-36.3c0,0-45.7,29.5-56.1,21.8C88.7,384.5,98.3,353.3,98.3,353.3z"/>
			<path class="st1" d="M146.2,378.4c-2.1,11.2-21.1,24.8-54.2,29.8c-1.2,0.2-12.2,2.3-21.9,0.4c6.1-11.7,22.2-31,17.1-50.1
				C99.2,360.3,148.1,368.6,146.2,378.4z"/>
			<path class="st10" d="M87.2,361l7,7.2c1.7,10,7.7,19.7,16.9,20.5l47.1-16.1v-16.4L87.2,361z"/>
			<path class="st3" d="M103.1,287.8l-24.4-12.4c-2.5-1.3-5.3-2-8.1-1.9c-5.2,0.1-12.7,1.8-15.6,10.6c-4.7,14,10.4,70.9,10.4,70.9
				s15.2,18.8,27.2,17.9c12-0.9,29.3-11,29.3-19.4c0-6-4.7-34.4-7.3-50.1C113.4,296.6,109.2,290.9,103.1,287.8z"/>
			<g>
				<path class="st12" d="M114.6,251.8c0.1,0,3.1,0.7,4.7,1.1c0.5,0.1,0.8,0.7,0.6,1.1l-1,2.3c-0.3,0.8-1.1,1.3-2,1.3h-3.5"/>
				<path class="st13" d="M82.8,273.4l2.5-16.4l31.7-18.4V251c0,0.7-0.1,1.4-0.4,2.1l-0.6,1.6c-0.3,0.9-0.4,1.8-0.3,2.7l0.2,1.4
					c0.2,1.1,0.1,2.2-0.4,3.2l-2.9,6.8c-0.9,2.2-3.1,3.5-5.5,3.2l-4.5-0.5l-1.9,10.1L82.8,273.4z"/>
				<path class="st3" d="M84.6,265.9l5.6,1.1c2.8,0.6,5.8-0.2,7.9-2.1l7.5-6.7v1.8l1.2-0.2c1.1-0.2,2-1,2.3-2.1l2.9-9.6
					c0,0,8.1-0.7,10.5-10.6c0,0-8.9-8.8-21.7-7.9c-12.8,0.9-17.5,11.5-17.5,11.5s-2.7-0.3-4,3.1c-1,2.8,1.9,14.9,3,19.5
					C82.6,264.8,83.5,265.6,84.6,265.9z"/>
				<path class="st13" d="M105.2,262.3l1-5.2c0,0-1.1-2.5-3.5-1.5c-2.5,1-1.4,7.4,0,7.6C104.1,263.3,105.2,262.3,105.2,262.3z"/>
				<polygon class="st1" points="106.2,257.1 119.4,256.3 120.2,254.2 105.2,255.9 				"/>
			</g>
			<path class="st1" d="M96.4,381.2c1.8,18.7-17.1,32.8-34.3,25.4c-16.1-6.9-27.8-22.2-31.3-48.7c-3.9-29.5,1.4-48.1,5.2-57.2
				c1.9-4.4,6.5-7,11.3-6.3c37,5.2,46.2,65.9,46.2,65.9S95.3,370.1,96.4,381.2z"/>
			<path class="st13" d="M128.8,296c0,0,4.5-8.8,5.9-9.6c1.4-0.9,12.7-1.2,13.8-1.4c1-0.2,3.1,2.1,3.1,2.1s5.9-0.2,6.5,0
				c0.7,0.2,0.5,3.4-1,3.4c-1.5,0-4.5,0.9-4.5,0.9l-3.6,4.6c0,0-6,4-7.1,4c-1,0-8.3,1.4-8.3,1.4L128.8,296z"/>
			<path class="st13" d="M167.8,308.4c0,0,4.5-8.8,5.9-9.6c1.4-0.9,12.7-1.2,13.8-1.4c1-0.2,3.1,2.1,3.1,2.1l2.2,1.4
				c1.4,0.9,1.4,2.9,0.1,3.8c-2.3,1.6-4.9,3.8-4.9,3.8s-6,4-7.1,4c-1,0-8.3,1.4-8.3,1.4L167.8,308.4z"/>
			<path class="st3" d="M92.6,313.4l39.7,22.4c4.6,2.6,10.2,2.4,14.5-0.5l30.2-22.2c0,0-1.5-7.5-7.3-9.3c-1.2-0.4-27.2,9.1-27.2,9.1
				c-1.7,0.8-3.8,0.6-5.3-0.6l-30.1-21.9L92.6,310"/>
			<path class="st3" d="M100.6,299.2l29.2-6.8c6,0,6.9,8.5,6.9,8.5l-20.1,14.3L100.6,299.2z"/>
			<path class="st3" d="M121.9,405.2c0,1.9-1.4,4.3-3,5.3c-1.7,1-3,0.2-3-1.8c0-1.9,1.4-4.3,3-5.3
				C120.5,402.5,121.9,403.3,121.9,405.2z"/>
			<path class="st3" d="M120.5,404.4c0,1.9-1.4,4.3-3,5.3s-3,0.2-3-1.8c0-1.9,1.4-4.3,3-5.3S120.5,402.5,120.5,404.4z"/>
			<path class="st1" d="M138.4,384.1"/>
			<path class="st14" d="M146.2,378.4c-36,20.5-46.8,5.6-49.7-1.6c-0.8-1.9-1-3.3-1-3.3s-7.3-37.9-17.1-55.4
				C70.2,303.3,59.2,293.5,42,293"/>
			<polygon class="st10" points="83.1,270.7 78.7,275.4 103.1,287.8 101.4,278.8 			"/>
		</g>
	</g>
</g>
<g id="Designed_by_Freepik">
</g>
</svg>
